<mxfile host="app.diagrams.net" modified="2024-03-20T03:22:08.829Z" agent="Mozilla/5.0 (Windows NT 10.0; Win64; x64) AppleWebKit/537.36 (KHTML, like Gecko) Chrome/122.0.0.0 Safari/537.36" etag="YjJahAnCLB6NlPX-bw5E" version="23.1.1" type="github">
  <diagram name="第 1 页" id="bxPdd4m5XbWyl-8YQd8G">
    <mxGraphModel dx="662" dy="388" grid="1" gridSize="10" guides="1" tooltips="1" connect="1" arrows="1" fold="1" page="1" pageScale="1" pageWidth="827" pageHeight="1169" math="0" shadow="0">
      <root>
        <mxCell id="0" />
        <mxCell id="1" parent="0" />
        <mxCell id="ix-okHhNT_fr67MZQMGr-25" value="" style="rounded=0;whiteSpace=wrap;html=1;" vertex="1" parent="1">
          <mxGeometry x="170" y="208" width="420" height="92" as="geometry" />
        </mxCell>
        <mxCell id="ix-okHhNT_fr67MZQMGr-15" value="" style="rounded=0;whiteSpace=wrap;html=1;" vertex="1" parent="1">
          <mxGeometry x="170" y="360" width="420" height="290" as="geometry" />
        </mxCell>
        <mxCell id="ix-okHhNT_fr67MZQMGr-7" style="edgeStyle=orthogonalEdgeStyle;rounded=0;orthogonalLoop=1;jettySize=auto;html=1;entryX=0.5;entryY=1;entryDx=0;entryDy=0;" edge="1" parent="1" source="ix-okHhNT_fr67MZQMGr-1" target="ix-okHhNT_fr67MZQMGr-6">
          <mxGeometry relative="1" as="geometry" />
        </mxCell>
        <mxCell id="ix-okHhNT_fr67MZQMGr-11" style="edgeStyle=orthogonalEdgeStyle;rounded=0;orthogonalLoop=1;jettySize=auto;html=1;entryX=0.5;entryY=1;entryDx=0;entryDy=0;" edge="1" parent="1" source="ix-okHhNT_fr67MZQMGr-1" target="ix-okHhNT_fr67MZQMGr-10">
          <mxGeometry relative="1" as="geometry" />
        </mxCell>
        <mxCell id="ix-okHhNT_fr67MZQMGr-1" value="" style="rounded=0;whiteSpace=wrap;html=1;fillColor=#f8cecc;strokeColor=#b85450;" vertex="1" parent="1">
          <mxGeometry x="180" y="480" width="400" height="150" as="geometry" />
        </mxCell>
        <mxCell id="z2rKa9DiDiB4eXZI61HK-4" style="edgeStyle=orthogonalEdgeStyle;rounded=0;orthogonalLoop=1;jettySize=auto;html=1;entryX=0.5;entryY=1;entryDx=0;entryDy=0;" parent="1" source="z2rKa9DiDiB4eXZI61HK-1" target="z2rKa9DiDiB4eXZI61HK-2" edge="1">
          <mxGeometry relative="1" as="geometry" />
        </mxCell>
        <mxCell id="z2rKa9DiDiB4eXZI61HK-6" value="&lt;font style=&quot;font-size: 14px;&quot;&gt;access_token&lt;/font&gt;" style="edgeLabel;html=1;align=center;verticalAlign=middle;resizable=0;points=[];" parent="z2rKa9DiDiB4eXZI61HK-4" vertex="1" connectable="0">
          <mxGeometry x="0.0627" y="1" relative="1" as="geometry">
            <mxPoint as="offset" />
          </mxGeometry>
        </mxCell>
        <mxCell id="z2rKa9DiDiB4eXZI61HK-5" style="edgeStyle=orthogonalEdgeStyle;rounded=0;orthogonalLoop=1;jettySize=auto;html=1;" parent="1" source="z2rKa9DiDiB4eXZI61HK-1" target="z2rKa9DiDiB4eXZI61HK-3" edge="1">
          <mxGeometry relative="1" as="geometry" />
        </mxCell>
        <mxCell id="z2rKa9DiDiB4eXZI61HK-7" value="SDK" style="edgeLabel;html=1;align=center;verticalAlign=middle;resizable=0;points=[];" parent="z2rKa9DiDiB4eXZI61HK-5" vertex="1" connectable="0">
          <mxGeometry x="-0.0351" relative="1" as="geometry">
            <mxPoint as="offset" />
          </mxGeometry>
        </mxCell>
        <mxCell id="z2rKa9DiDiB4eXZI61HK-8" value="&lt;font style=&quot;font-size: 14px;&quot;&gt;SDK&lt;/font&gt;" style="edgeLabel;html=1;align=center;verticalAlign=middle;resizable=0;points=[];" parent="z2rKa9DiDiB4eXZI61HK-5" vertex="1" connectable="0">
          <mxGeometry x="-0.0351" y="-3" relative="1" as="geometry">
            <mxPoint as="offset" />
          </mxGeometry>
        </mxCell>
        <mxCell id="z2rKa9DiDiB4eXZI61HK-1" value="&lt;font style=&quot;font-size: 14px;&quot;&gt;HttpRequestHandler&lt;/font&gt;" style="rounded=0;whiteSpace=wrap;html=1;" parent="1" vertex="1">
          <mxGeometry x="310" y="580" width="150" height="40" as="geometry" />
        </mxCell>
        <mxCell id="z2rKa9DiDiB4eXZI61HK-2" value="&lt;font style=&quot;font-size: 14px;&quot;&gt;Weidi，Dashi，Zhikong&lt;/font&gt;" style="rounded=0;whiteSpace=wrap;html=1;" parent="1" vertex="1">
          <mxGeometry x="200" y="490" width="120" height="40" as="geometry" />
        </mxCell>
        <mxCell id="z2rKa9DiDiB4eXZI61HK-3" value="&lt;font style=&quot;font-size: 14px;&quot;&gt;Hikvision&lt;/font&gt;" style="rounded=0;whiteSpace=wrap;html=1;" parent="1" vertex="1">
          <mxGeometry x="440" y="490" width="120" height="40" as="geometry" />
        </mxCell>
        <mxCell id="ix-okHhNT_fr67MZQMGr-2" value="&lt;font style=&quot;font-size: 14px;&quot;&gt;Raw数据&lt;/font&gt;" style="text;html=1;strokeColor=none;fillColor=none;align=center;verticalAlign=middle;whiteSpace=wrap;rounded=0;fontStyle=1" vertex="1" parent="1">
          <mxGeometry x="70" y="470" width="70" height="35" as="geometry" />
        </mxCell>
        <mxCell id="ix-okHhNT_fr67MZQMGr-3" value="&lt;span style=&quot;font-size: 14px;&quot;&gt;指标/事件数据&lt;/span&gt;" style="text;html=1;strokeColor=none;fillColor=none;align=center;verticalAlign=middle;whiteSpace=wrap;rounded=0;fontStyle=1" vertex="1" parent="1">
          <mxGeometry x="60" y="220" width="90" height="35" as="geometry" />
        </mxCell>
        <mxCell id="ix-okHhNT_fr67MZQMGr-6" value="&lt;font style=&quot;font-size: 14px;&quot;&gt;Weidi，Dashi，Zhikong封装响应DTO&lt;/font&gt;" style="rounded=0;whiteSpace=wrap;html=1;fillColor=#fff2cc;strokeColor=#d6b656;" vertex="1" parent="1">
          <mxGeometry x="180" y="380" width="160" height="60" as="geometry" />
        </mxCell>
        <mxCell id="ix-okHhNT_fr67MZQMGr-8" value="&lt;span style=&quot;color: rgb(0, 0, 0); font-family: Helvetica; font-size: 14px; font-style: normal; font-variant-ligatures: normal; font-variant-caps: normal; letter-spacing: normal; orphans: 2; text-align: center; text-indent: 0px; text-transform: none; widows: 2; word-spacing: 0px; -webkit-text-stroke-width: 0px; background-color: rgb(251, 251, 251); text-decoration-thickness: initial; text-decoration-style: initial; text-decoration-color: initial; float: none; display: inline !important;&quot;&gt;Map&lt;/span&gt;" style="text;whiteSpace=wrap;html=1;fontStyle=0" vertex="1" parent="1">
          <mxGeometry x="310" y="450" width="30" height="30" as="geometry" />
        </mxCell>
        <mxCell id="ix-okHhNT_fr67MZQMGr-10" value="&lt;font style=&quot;font-size: 14px;&quot;&gt;Hikvision封装响应DTO&lt;/font&gt;" style="rounded=0;whiteSpace=wrap;html=1;fillColor=#fff2cc;strokeColor=#d6b656;" vertex="1" parent="1">
          <mxGeometry x="414" y="380" width="160" height="60" as="geometry" />
        </mxCell>
        <mxCell id="ix-okHhNT_fr67MZQMGr-14" value="&lt;span style=&quot;color: rgb(0, 0, 0); font-family: Helvetica; font-size: 14px; font-style: normal; font-variant-ligatures: normal; font-variant-caps: normal; letter-spacing: normal; orphans: 2; text-align: center; text-indent: 0px; text-transform: none; widows: 2; word-spacing: 0px; -webkit-text-stroke-width: 0px; background-color: rgb(251, 251, 251); text-decoration-thickness: initial; text-decoration-style: initial; text-decoration-color: initial; float: none; display: inline !important;&quot;&gt;Map&lt;/span&gt;" style="text;whiteSpace=wrap;html=1;fontStyle=0" vertex="1" parent="1">
          <mxGeometry x="414" y="450" width="30" height="30" as="geometry" />
        </mxCell>
        <mxCell id="ix-okHhNT_fr67MZQMGr-16" value="&lt;font style=&quot;font-size: 14px;&quot;&gt;Weidi，Dashi，Zhikong指标/事件DTO&lt;/font&gt;" style="rounded=0;whiteSpace=wrap;html=1;fillColor=#d5e8d4;strokeColor=#82b366;" vertex="1" parent="1">
          <mxGeometry x="175" y="224" width="170" height="60" as="geometry" />
        </mxCell>
        <mxCell id="ix-okHhNT_fr67MZQMGr-17" value="DTO" style="endArrow=classic;html=1;rounded=0;entryX=0.5;entryY=1;entryDx=0;entryDy=0;exitX=0.5;exitY=0;exitDx=0;exitDy=0;" edge="1" parent="1" source="ix-okHhNT_fr67MZQMGr-6" target="ix-okHhNT_fr67MZQMGr-16">
          <mxGeometry width="50" height="50" relative="1" as="geometry">
            <mxPoint x="220" y="350" as="sourcePoint" />
            <mxPoint x="270" y="300" as="targetPoint" />
          </mxGeometry>
        </mxCell>
        <mxCell id="ix-okHhNT_fr67MZQMGr-22" value="DTO" style="edgeLabel;html=1;align=center;verticalAlign=middle;resizable=0;points=[];" vertex="1" connectable="0" parent="ix-okHhNT_fr67MZQMGr-17">
          <mxGeometry x="0.18" y="3" relative="1" as="geometry">
            <mxPoint as="offset" />
          </mxGeometry>
        </mxCell>
        <mxCell id="ix-okHhNT_fr67MZQMGr-23" value="&lt;font style=&quot;font-size: 14px;&quot;&gt;响应DTO&lt;/font&gt;" style="edgeLabel;html=1;align=center;verticalAlign=middle;resizable=0;points=[];" vertex="1" connectable="0" parent="ix-okHhNT_fr67MZQMGr-17">
          <mxGeometry x="0.1067" relative="1" as="geometry">
            <mxPoint as="offset" />
          </mxGeometry>
        </mxCell>
        <mxCell id="ix-okHhNT_fr67MZQMGr-19" value="&lt;font style=&quot;font-size: 14px;&quot;&gt;Hikvision指标/事件DTO&lt;/font&gt;" style="rounded=0;whiteSpace=wrap;html=1;fillColor=#d5e8d4;strokeColor=#82b366;" vertex="1" parent="1">
          <mxGeometry x="404" y="220" width="170" height="60" as="geometry" />
        </mxCell>
        <mxCell id="ix-okHhNT_fr67MZQMGr-20" value="" style="endArrow=classic;html=1;rounded=0;entryX=0.5;entryY=1;entryDx=0;entryDy=0;exitX=0.5;exitY=0;exitDx=0;exitDy=0;" edge="1" parent="1">
          <mxGeometry width="50" height="50" relative="1" as="geometry">
            <mxPoint x="493.5" y="380" as="sourcePoint" />
            <mxPoint x="493.5" y="280" as="targetPoint" />
          </mxGeometry>
        </mxCell>
        <mxCell id="ix-okHhNT_fr67MZQMGr-24" value="&lt;font style=&quot;font-size: 14px;&quot;&gt;响应DTO&lt;/font&gt;" style="edgeLabel;html=1;align=center;verticalAlign=middle;resizable=0;points=[];" vertex="1" connectable="0" parent="ix-okHhNT_fr67MZQMGr-20">
          <mxGeometry x="0.179" relative="1" as="geometry">
            <mxPoint as="offset" />
          </mxGeometry>
        </mxCell>
      </root>
    </mxGraphModel>
  </diagram>
</mxfile>
